# xmcd CD database file
#
# Track frame offsets:
#	150
#	18179
#	40335
#	61541
#
# Disc length: 1082 seconds
#
# Revision: 1
# Processed by: cddbd v1.5.1PL2 Copyright (c) Steve Scherf et al.
# Submitted via: CD2WAV32(JP) R3.22
#
DISCID=23043804
DTITLE=Circus - すくみず2 ～泳・げ・な・い～ ボーカルミニアルバム
DYEAR=2005
DGENRE=Game
TTITLE0=桃井はるこ - 夏だ! 祭りだ! スク水だ!
TTITLE1=桃井はるこ - 泳・ぎ・た・い
TTITLE2=Zman - ブルコンワールド (店頭用)
TTITLE3=桃井はるこ - 泳・げ・な・い -Body beat board version-
EXTD=
EXTT0=「すくみず2」OP - Circus - 作詞曲:桃井はるこ
EXTT1=「すくみず2」主題歌 - Circus - 作詞曲:桃井はるこ
EXTT2=「すくみず2」劇中歌 - Circus - 作詞曲:Zman
EXTT3=「すくみず2」ED - Circus - 曲:小池雅也
PLAYORDER=
